<svg width="16" height="15" viewBox="0 0 16 15" fill="none" xmlns="http://www.w3.org/2000/svg">
<path d="M13.2293 0C13.9199 0 14.5823 0.274367 15.0707 0.762743C15.5591 1.25112 15.8334 1.9135 15.8334 2.60417V12.3958C15.8334 13.0865 15.5591 13.7489 15.0707 14.2373C14.5823 14.7256 13.9199 15 13.2293 15H5.52094C5.3828 15 5.25033 14.9451 5.15265 14.8475C5.05497 14.7498 5.0001 14.6173 5.0001 14.4792C5.0001 14.341 5.05497 14.2086 5.15265 14.1109C5.25033 14.0132 5.3828 13.9583 5.52094 13.9583H13.2293C13.6437 13.9583 14.0411 13.7937 14.3341 13.5007C14.6271 13.2077 14.7918 12.8102 14.7918 12.3958V2.60417C14.7918 2.18977 14.6271 1.79234 14.3341 1.49931C14.0411 1.20629 13.6437 1.04167 13.2293 1.04167H5.52094C5.3828 1.04167 5.25033 0.986793 5.15265 0.889118C5.05497 0.791443 5.0001 0.658967 5.0001 0.520833C5.0001 0.3827 5.05497 0.250224 5.15265 0.152549C5.25033 0.0548734 5.3828 0 5.52094 0H13.2293ZM3.79844 3.48583C3.89612 3.38815 4.02862 3.33326 4.16677 3.33326C4.30492 3.33326 4.43741 3.38815 4.5351 3.48583C4.63279 3.58352 4.68767 3.71601 4.68767 3.85417C4.68767 3.99232 4.63279 4.12481 4.5351 4.2225L1.77844 6.97917H11.1459C11.2841 6.97917 11.4165 7.03404 11.5142 7.13171C11.6119 7.22939 11.6668 7.36187 11.6668 7.5C11.6668 7.63813 11.6119 7.77061 11.5142 7.86829C11.4165 7.96596 11.2841 8.02083 11.1459 8.02083H1.77844L4.5351 10.7775C4.63279 10.8752 4.68767 11.0077 4.68767 11.1458C4.68767 11.284 4.63279 11.4165 4.5351 11.5142C4.43741 11.6119 4.30492 11.6667 4.16677 11.6667C4.02862 11.6667 3.89612 11.6119 3.79844 11.5142L0.152602 7.86833C0.104224 7.81997 0.0658464 7.76255 0.0396633 7.69935C0.0134811 7.63615 4.76837e-06 7.56841 4.76837e-06 7.5C4.76837e-06 7.43159 0.0134811 7.36385 0.0396633 7.30065C0.0658464 7.23745 0.104224 7.18003 0.152602 7.13167L3.79844 3.48583Z" fill="#D93E3E"/>
</svg>
