<svg width="24" height="24" viewBox="0 0 24 24" fill="none" xmlns="http://www.w3.org/2000/svg">
<path d="M20.4132 3.89997L4.13215 10.226L8.96115 12.232C10.3725 12.8178 11.4938 13.9395 12.0792 15.351L14.0852 20.179L20.4132 3.89997ZM22.2602 4.58197L15.9322 20.863C15.5322 21.893 14.3812 22.42 13.3612 22.043C13.1125 21.9513 12.8855 21.8092 12.6945 21.6256C12.5035 21.442 12.3525 21.2208 12.2512 20.976L10.2442 16.146C9.85326 15.2056 9.10571 14.4584 8.16515 14.068L3.33715 12.062C2.33315 11.645 1.87515 10.486 2.31415 9.47197C2.422 9.22411 2.5778 9.00003 2.77259 8.81262C2.96738 8.62521 3.19731 8.47817 3.44915 8.37997L19.7302 2.05197C20.0838 1.90983 20.4715 1.87475 20.845 1.95109C21.2184 2.02743 21.5612 2.21182 21.8308 2.48136C22.1003 2.7509 22.2847 3.0937 22.361 3.46716C22.4374 3.84062 22.4023 4.22828 22.2602 4.58197Z" fill="#225AD6"/>
</svg>
